<?xml version="1.0" encoding="utf-8"?>
<!-- Generator: Adobe Illustrator 26.2.1, SVG Export Plug-In . SVG Version: 6.00 Build 0)  -->
<svg version="1.1" id="Layer_1" xmlns="http://www.w3.org/2000/svg" xmlns:xlink="http://www.w3.org/1999/xlink" x="0px" y="0px" viewBox="0 0 48 28" style="enable-background:new 0 0 48 28;" xml:space="preserve">
    <style type="text/css">
	.st0{fill:#F4D0DE;}
	.st1{fill:none;stroke:#6B6B6B;stroke-width:2;stroke-linecap:round;stroke-linejoin:round;}
	.st2{fill:none;stroke:#6B6B6B;stroke-linecap:round;stroke-linejoin:round;}
	.st3{fill:#6B6B6B;stroke:#6B6B6B;stroke-linecap:round;stroke-linejoin:round;}
</style>
    <g>
        <path class="st0" d="M47.2,18.1c-0.1-0.9-0.4-1.7-0.9-2.5c-0.5-0.7-1.3-1.3-2.1-1.6c-1.2-0.6-7.6-2.8-7.6-2.8l-6,1.2
		c-0.1,0.2-0.3,0.5-0.5,0.6c-0.2,0.2-0.5,0.2-0.8,0.3h-14L7,13.5c0,0-4.1-0.2-4.1,6.3c0,5.1,3.4,5.5,4.4,5.5c-0.7-0.9-1-1.9-1-3
		c0-0.8,0.2-1.6,0.6-2.3c0.4-0.7,0.9-1.3,1.5-1.8s1.4-0.8,2.2-0.9c0.8-0.1,1.6,0,2.3,0.2c0.7,0.2,1.4,0.7,2,1.2s1,1.2,1.2,2
		c0.2,0.7,0.3,1.5,0.2,2.3c-0.1,0.8-0.4,1.5-0.9,2.1h16.4c-0.5-0.7-0.8-1.6-0.9-2.5c-0.1-0.9,0.1-1.8,0.5-2.6c0.4-0.8,1.1-1.5,1.8-2
		c0.8-0.5,1.7-0.7,2.6-0.7c0.9,0,1.8,0.3,2.6,0.7c0.8,0.5,1.4,1.2,1.8,2c0.4,0.8,0.6,1.7,0.5,2.6c-0.1,0.9-0.4,1.8-0.9,2.5h5.8
		c1.5,0,1.5-1.6,1.5-1.6C47.4,21.8,47.4,20,47.2,18.1z" />
        <path class="st1" d="M23.5,15.4h3.7" />
        <path class="st2" d="M0.7,0.6h17" />
        <path class="st2" d="M8.8,4.4h6.6" />
        <path class="st3" d="M5.4,11.5c0,0,0-2.2,1.9-2.2h3.1c1.3,0.2,2.6,0.9,3.4,2L5.4,11.5z" />
        <path class="st2" d="M19.5,11.3c0,0,0-3.3,0-4.1c0-1,0.7-2,1.5-2c0.4,0,0.8,0,1.1,0.1C22.4,5.5,22.8,5.7,23,6
		c0.5,0.6,1.9,5.4,1.9,5.4L19.5,11.3z" />
        <path class="st2" d="M45.6,16.2c-0.1-0.9-0.4-1.7-0.9-2.5c-0.5-0.7-1.3-1.3-2.1-1.6c-1.2-0.6-7.6-2.8-7.6-2.8l-0.4-0.6h-0.1
		c0,0.2-0.1,0.4-0.3,0.6s-0.3,0.3-0.5,0.5c-1,0.6-3.1,0.5-4.1,0.5l-0.6,0.2c-0.1,0.2-0.3,0.5-0.5,0.6c-0.2,0.2-0.5,0.2-0.8,0.3H13.7
		l-8.3,0.2c0,0-4.1-0.2-4.1,6.3c0,5.9,4.6,5.5,4.6,5.5h0.5c-0.1-0.3-0.1-0.7-0.1-1c0-1.3,0.5-2.6,1.5-3.5c0.9-0.9,2.2-1.5,3.5-1.5
		c1.3,0,2.6,0.5,3.5,1.5c0.9,0.9,1.5,2.2,1.5,3.5c0,0.3,0,0.7-0.1,1h14.7c-0.1-0.7-0.1-1.5,0.1-2.2c0.2-0.7,0.5-1.4,1-1.9
		c0.5-0.6,1.1-1,1.7-1.3c0.7-0.3,1.4-0.5,2.1-0.5c0.7,0,1.5,0.2,2.1,0.5c0.7,0.3,1.3,0.8,1.7,1.3c0.5,0.6,0.8,1.2,1,1.9
		s0.2,1.5,0.1,2.2h3.4c1.5,0,1.5-1.6,1.5-1.6C45.8,19.8,45.8,18,45.6,16.2z" />
        <path class="st2" d="M35.8,27.4c2.8,0,5-2.2,5-5c0-2.8-2.2-5-5-5c-2.8,0-5,2.2-5,5C30.8,25.1,33,27.4,35.8,27.4z" />
        <path class="st2" d="M11.3,27.3c2.8,0,5-2.2,5-5c0-2.8-2.2-5-5-5c-2.8,0-5,2.2-5,5C6.3,25.1,8.5,27.3,11.3,27.3z" />
        <path class="st2" d="M34.4,8.6c-1.1-1.7-4.2-6.3-4.4-6.5c-0.3-0.2-0.7-0.4-1.1-0.4c-0.4,0-0.8,0-1.1,0.2c-0.2,0.2-0.4,0.4-0.5,0.7
		c-0.1,0.3-0.2,0.6-0.1,0.9l1.7,4.7c0.2,0.7,0.2,1.3,0,2" />
    </g>
</svg>