<?xml version="1.0" encoding="utf-8"?>
<!-- Generator: Adobe Illustrator 26.2.1, SVG Export Plug-In . SVG Version: 6.00 Build 0)  -->
<svg version="1.1" id="Layer_1" xmlns="http://www.w3.org/2000/svg" xmlns:xlink="http://www.w3.org/1999/xlink" x="0px" y="0px" viewBox="0 0 63 30" style="enable-background:new 0 0 63 30;" xml:space="preserve">
    <style type="text/css">
	.st0{fill:#B7E0D5;}
	.st1{fill:none;stroke:#6B6B6B;stroke-linecap:round;stroke-linejoin:round;}
	.st2{fill:none;stroke:#6B6B6B;stroke-width:2;stroke-linecap:round;stroke-linejoin:round;}
</style>
    <g>
        <path class="st0" d="M62.3,19.7c-0.1-0.9-0.4-1.8-1-2.6c-0.6-0.8-1.3-1.4-2.2-1.7c-1.3-0.6-8-3-8-3l-2.2-0.7l-0.4-0.6
		c-1.7-2.5-3.4-4.9-5.1-7.4c-3.2-1.3-6.6-2-10.1-1.9c-3.5,0.1-6.9,0.9-10,2.4c-2.5,6.1-4.3,9.6-5.5,11.3c-1.2,1.6-2,3.6-2.1,5.6v0.3
		c0,5.4,3.6,5.8,4.6,5.8c-0.7-0.9-1.1-2-1.1-3.2c0-0.8,0.2-1.7,0.6-2.4c0.4-0.7,0.9-1.4,1.6-1.9c0.7-0.5,1.5-0.8,2.3-0.9
		c0.8-0.1,1.7-0.1,2.4,0.2s1.5,0.7,2.1,1.3c0.6,0.6,1,1.3,1.3,2.1c0.3,0.8,0.3,1.6,0.2,2.5c-0.1,0.8-0.4,1.6-0.9,2.3H46
		c-0.6-0.8-0.9-1.7-1-2.7c-0.1-1,0.1-1.9,0.6-2.8c0.4-0.9,1.1-1.6,1.9-2.1c0.8-0.5,1.8-0.8,2.7-0.8c1,0,1.9,0.3,2.7,0.8
		c0.8,0.5,1.5,1.2,1.9,2.1c0.4,0.9,0.6,1.8,0.6,2.8c-0.1,1-0.4,1.9-1,2.7h6.2c1.6,0,1.6-1.7,1.6-1.7C62.5,23.6,62.5,21.6,62.3,19.7z
		 M31.6,11.5L23,12l2.6-6.1l1.1-0.5l3.2-0.7l2.3-0.6C31.9,6.3,31.7,9.3,31.6,11.5z M38.5,12c-1.7,0.1-3.3,0.3-5,0l0.2-7.8
		c1.3,0,2.4,0.2,3.7,0.4C38.8,4.8,40.6,5,42,5.5c1,1.5,2.5,3.5,3.5,5C43.4,11.2,40.7,11.9,38.5,12z" />
        <path class="st1" d="M60.6,17.6c-0.1-0.9-0.4-1.9-1-2.6c-0.6-0.8-1.3-1.3-2.2-1.7c-1.2-0.6-8-3-8-3L49,9.6h-0.1
		c-3,1.5-6.3,2.4-9.6,2.6c-2.4,0.2-4.9,0.1-7.3-0.4l-13.7,0.7c0,0-4.3-0.2-4.3,6.7c0,6.3,4.8,5.8,4.8,5.8h0.5
		c-0.1-0.3-0.1-0.7-0.1-1.1c0-1.4,0.6-2.8,1.5-3.8c1-1,2.3-1.6,3.7-1.6c1.4,0,2.7,0.6,3.7,1.6c1,1,1.5,2.3,1.5,3.8
		c0,0.4,0,0.7-0.1,1.1h15.4c-0.2-1.4,0.1-2.8,0.9-3.9c0.8-1.1,2-1.9,3.4-2.2c1.4-0.3,2.8,0,3.9,0.8c1.1,0.8,1.9,2,2.2,3.3
		c0.1,0.6,0.1,1.3,0,1.9H59c1.6,0,1.6-1.7,1.6-1.7C60.8,21.4,60.8,19.5,60.6,17.6L60.6,17.6z" />
        <path class="st1" d="M50.3,29.4c2.9,0,5.3-2.4,5.3-5.3s-2.4-5.3-5.3-5.3c-2.9,0-5.3,2.4-5.3,5.3S47.4,29.4,50.3,29.4z" />
        <path class="st1" d="M24.5,29.4c2.9,0,5.3-2.4,5.3-5.3s-2.4-5.3-5.3-5.3s-5.3,2.4-5.3,5.3S21.6,29.4,24.5,29.4z" />
        <path class="st1" d="M48.9,9.5c-1.2-1.8-4.4-6.7-4.6-6.9c-0.4-0.2-0.7-0.3-1.1-0.5c-6.8-2.6-13.8-1.7-19.6,0.2l-1.8,0.9
		c-1.4,3-2.8,6.2-4.2,9.2" />
        <path class="st1" d="M32,11.8c0.2-2.7,0.4-5.4,0.6-8.1" />
        <path class="st1" d="M46,10.6c-0.9-1.4-4.2-6-4.3-6.1l-0.9-0.4c-5.2-2-10.5-1.3-14.9,0.1L24.6,5c-1.1,2.3-2,4.7-3.1,7" />
        <path class="st2" d="M37.4,17.2h3.9" />
        <path class="st0" d="M2,8.3h5.4c0.1,0.4,0.1,0.9,0,1.3c-0.1,0.4-0.3,0.8-0.5,1.2c-0.3,0.3-0.6,0.6-0.9,0.9
		c-0.4,0.2-0.8,0.4-1.2,0.4c-0.4-0.1-0.8-0.2-1.2-0.4c-0.4-0.2-0.7-0.5-0.9-0.9C2.3,10.4,2.2,10,2.1,9.6C2,9.2,1.9,8.8,2,8.3z" />
        <path class="st1" d="M0.6,7.2H6c0.1,0.4,0.1,0.9,0,1.3C5.9,8.9,5.7,9.3,5.4,9.7c-0.3,0.3-0.6,0.6-0.9,0.9c-0.4,0.2-0.8,0.4-1.2,0.4
		c-0.4-0.1-0.8-0.2-1.2-0.4S1.4,10,1.1,9.7C0.9,9.3,0.7,8.9,0.6,8.5C0.5,8.1,0.5,7.6,0.6,7.2L0.6,7.2z" />
        <path class="st1" d="M2,4.5v2.2" />
        <path class="st1" d="M4.5,4.5v2.2" />
        <path class="st1" d="M17,17.9c-1.3-1-2.9-1.4-4.6-1.2c-3.9,0.7-5.1,6.4-6.7,6.1C4.8,22.6,3.3,19.9,3,11" />
    </g>
</svg>